<svg width="18" height="18" viewBox="0 0 18 18" fill="none" xmlns="http://www.w3.org/2000/svg">
<path d="M9.0001 17C7.1973 15.0152 4.75242 13.7296 2.09542 13.3692C1.79299 13.3357 1.51368 13.1914 1.31139 12.9641C1.1091 12.7368 0.998177 12.4427 1.00002 12.1384V2.23063C1.00001 2.05286 1.03851 1.87719 1.11287 1.71572C1.18724 1.55424 1.2957 1.41079 1.4308 1.29524C1.56351 1.18179 1.71885 1.09787 1.88649 1.04906C2.05413 1.00026 2.23024 0.987677 2.40311 1.01216C4.9438 1.43383 7.26804 2.70002 9.0001 4.60604M9.0001 17V4.60604M9.0001 17C10.8029 15.0152 13.2478 13.7296 15.9048 13.3692C16.2072 13.3357 16.4865 13.1914 16.6888 12.9641C16.8911 12.7368 17.002 12.4427 17.0002 12.1384V2.23063C17.0002 2.05286 16.9617 1.87719 16.8873 1.71572C16.813 1.55424 16.7045 1.41079 16.5694 1.29524C16.4367 1.18179 16.2813 1.09787 16.1137 1.04906C15.9461 1.00026 15.77 0.987677 15.5971 1.01216C13.0564 1.43383 10.7322 2.70002 9.0001 4.60604" stroke="black" stroke-width="1.23078" stroke-linecap="round" stroke-linejoin="round"/>
</svg>
