<svg width="1158" height="218" viewBox="0 0 1158 218" fill="none" xmlns="http://www.w3.org/2000/svg">
<mask id="path-1-outside-1_1_322" maskUnits="userSpaceOnUse" x="-3" y="-3" width="1164" height="224" fill="black">
<rect fill="white" x="-3" y="-3" width="1164" height="224"/>
<path d="M35.066 47.87V76.554H81.324V103.218H35.066V134.326H87.384V162H0.524001V20.196H87.384V47.87H35.066ZM239.476 76.756V105.44H150.596V76.756H239.476ZM304.334 135.336H349.582V162H269.792V20.196H304.334V135.336ZM472.309 103.824C472.309 107.056 472.107 110.423 471.703 113.924H393.529C394.068 120.927 396.29 126.313 400.195 130.084C404.235 133.72 409.151 135.538 414.941 135.538C423.56 135.538 429.553 131.902 432.919 124.63H469.683C467.798 132.037 464.364 138.703 459.381 144.628C454.533 150.553 448.406 155.199 440.999 158.566C433.593 161.933 425.311 163.616 416.153 163.616C405.111 163.616 395.28 161.259 386.661 156.546C378.043 151.833 371.309 145.099 366.461 136.346C361.613 127.593 359.189 117.358 359.189 105.642C359.189 93.926 361.546 83.6913 366.259 74.938C371.107 66.1847 377.841 59.4513 386.459 54.738C395.078 50.0247 404.976 47.668 416.153 47.668C427.061 47.668 436.757 49.9573 445.241 54.536C453.725 59.1147 460.324 65.646 465.037 74.13C469.885 82.614 472.309 92.512 472.309 103.824ZM436.959 94.734C436.959 88.8087 434.939 84.0953 430.899 80.594C426.859 77.0927 421.809 75.342 415.749 75.342C409.959 75.342 405.043 77.0253 401.003 80.392C397.098 83.7587 394.674 88.5393 393.731 94.734H436.959ZM483.664 105.44C483.664 93.8587 485.818 83.6913 490.128 74.938C494.572 66.1847 500.564 59.4513 508.106 54.738C515.647 50.0247 524.064 47.668 533.356 47.668C541.301 47.668 548.236 49.284 554.162 52.516C560.222 55.748 564.868 59.99 568.1 65.242V49.284H602.642V162H568.1V146.042C564.733 151.294 560.02 155.536 553.96 158.768C548.034 162 541.099 163.616 533.154 163.616C523.996 163.616 515.647 161.259 508.106 156.546C500.564 151.698 494.572 144.897 490.128 136.144C485.818 127.256 483.664 117.021 483.664 105.44ZM568.1 105.642C568.1 97.0233 565.676 90.2227 560.828 85.24C556.114 80.2573 550.324 77.766 543.456 77.766C536.588 77.766 530.73 80.2573 525.882 85.24C521.168 90.088 518.812 96.8213 518.812 105.44C518.812 114.059 521.168 120.927 525.882 126.044C530.73 131.027 536.588 133.518 543.456 133.518C550.324 133.518 556.114 131.027 560.828 126.044C565.676 121.061 568.1 114.261 568.1 105.642ZM662.173 68.07C666.213 61.8753 671.263 57.0273 677.323 53.526C683.383 49.89 690.117 48.072 697.523 48.072V84.634H688.029C679.411 84.634 672.947 86.5193 668.637 90.29C664.328 93.926 662.173 100.39 662.173 109.682V162H627.631V49.284H662.173V68.07ZM782.714 48.072C795.911 48.072 806.415 52.3813 814.226 61C822.171 69.484 826.144 81.2 826.144 96.148V162H791.804V100.794C791.804 93.2527 789.851 87.3947 785.946 83.22C782.04 79.0453 776.788 76.958 770.19 76.958C763.591 76.958 758.339 79.0453 754.434 83.22C750.528 87.3947 748.576 93.2527 748.576 100.794V162H714.034V49.284H748.576V64.232C752.077 59.2493 756.79 55.344 762.716 52.516C768.641 49.5533 775.307 48.072 782.714 48.072ZM867.519 37.568C861.459 37.568 856.476 35.8173 852.571 32.316C848.8 28.68 846.915 24.236 846.915 18.984C846.915 13.5973 848.8 9.15333 852.571 5.65199C856.476 2.01599 861.459 0.197988 867.519 0.197988C873.444 0.197988 878.292 2.01599 882.063 5.65199C885.968 9.15333 887.921 13.5973 887.921 18.984C887.921 24.236 885.968 28.68 882.063 32.316C878.292 35.8173 873.444 37.568 867.519 37.568ZM884.689 49.284V162H850.147V49.284H884.689ZM978.401 48.072C991.599 48.072 1002.1 52.3813 1009.91 61C1017.86 69.484 1021.83 81.2 1021.83 96.148V162H987.491V100.794C987.491 93.2527 985.539 87.3947 981.633 83.22C977.728 79.0453 972.476 76.958 965.877 76.958C959.279 76.958 954.027 79.0453 950.121 83.22C946.216 87.3947 944.263 93.2527 944.263 100.794V162H909.721V49.284H944.263V64.232C947.765 59.2493 952.478 55.344 958.403 52.516C964.329 49.5533 970.995 48.072 978.401 48.072ZM1088.66 47.668C1096.6 47.668 1103.54 49.284 1109.46 52.516C1115.52 55.748 1120.17 59.99 1123.4 65.242V49.284H1157.94V161.798C1157.94 172.167 1155.86 181.527 1151.68 189.876C1147.64 198.36 1141.38 205.093 1132.9 210.076C1124.55 215.059 1114.11 217.55 1101.59 217.55C1084.89 217.55 1071.35 213.577 1060.98 205.632C1050.62 197.821 1044.69 187.183 1043.21 173.716H1077.35C1078.42 178.025 1080.98 181.392 1085.02 183.816C1089.06 186.375 1094.05 187.654 1099.97 187.654C1107.11 187.654 1112.76 185.567 1116.94 181.392C1121.25 177.352 1123.4 170.821 1123.4 161.798V145.84C1120.04 151.092 1115.39 155.401 1109.46 158.768C1103.54 162 1096.6 163.616 1088.66 163.616C1079.37 163.616 1070.95 161.259 1063.41 156.546C1055.87 151.698 1049.87 144.897 1045.43 136.144C1041.12 127.256 1038.97 117.021 1038.97 105.44C1038.97 93.8587 1041.12 83.6913 1045.43 74.938C1049.87 66.1847 1055.87 59.4513 1063.41 54.738C1070.95 50.0247 1079.37 47.668 1088.66 47.668ZM1123.4 105.642C1123.4 97.0233 1120.98 90.2227 1116.13 85.24C1111.42 80.2573 1105.63 77.766 1098.76 77.766C1091.89 77.766 1086.03 80.2573 1081.18 85.24C1076.47 90.088 1074.11 96.8213 1074.11 105.44C1074.11 114.059 1076.47 120.927 1081.18 126.044C1086.03 131.027 1091.89 133.518 1098.76 133.518C1105.63 133.518 1111.42 131.027 1116.13 126.044C1120.98 121.061 1123.4 114.261 1123.4 105.642Z"/>
</mask>
<path d="M35.066 47.87V45.19C33.5859 45.19 32.386 46.3899 32.386 47.87H35.066ZM35.066 76.554H32.386C32.386 78.0341 33.5859 79.234 35.066 79.234V76.554ZM81.324 76.554H84.004C84.004 75.0739 82.8041 73.874 81.324 73.874V76.554ZM81.324 103.218V105.898C82.8041 105.898 84.004 104.698 84.004 103.218H81.324ZM35.066 103.218V100.538C33.5859 100.538 32.386 101.738 32.386 103.218H35.066ZM35.066 134.326H32.386C32.386 135.806 33.5859 137.006 35.066 137.006V134.326ZM87.384 134.326H90.064C90.064 132.846 88.8641 131.646 87.384 131.646V134.326ZM87.384 162V164.68C88.8641 164.68 90.064 163.48 90.064 162H87.384ZM0.524001 162H-2.156C-2.156 163.48 -0.956123 164.68 0.524001 164.68V162ZM0.524001 20.196V17.516C-0.956123 17.516 -2.156 18.7159 -2.156 20.196H0.524001ZM87.384 20.196H90.064C90.064 18.7159 88.8641 17.516 87.384 17.516V20.196ZM87.384 47.87V50.55C88.8641 50.55 90.064 49.3501 90.064 47.87H87.384ZM32.386 47.87V76.554H37.746V47.87H32.386ZM35.066 79.234H81.324V73.874H35.066V79.234ZM78.644 76.554V103.218H84.004V76.554H78.644ZM81.324 100.538H35.066V105.898H81.324V100.538ZM32.386 103.218V134.326H37.746V103.218H32.386ZM35.066 137.006H87.384V131.646H35.066V137.006ZM84.704 134.326V162H90.064V134.326H84.704ZM87.384 159.32H0.524001V164.68H87.384V159.32ZM3.204 162V20.196H-2.156V162H3.204ZM0.524001 22.876H87.384V17.516H0.524001V22.876ZM84.704 20.196V47.87H90.064V20.196H84.704ZM87.384 45.19H35.066V50.55H87.384V45.19ZM239.476 76.756H242.156C242.156 75.2759 240.956 74.076 239.476 74.076V76.756ZM239.476 105.44V108.12C240.956 108.12 242.156 106.92 242.156 105.44H239.476ZM150.596 105.44H147.916C147.916 106.92 149.116 108.12 150.596 108.12V105.44ZM150.596 76.756V74.076C149.116 74.076 147.916 75.2759 147.916 76.756H150.596ZM236.796 76.756V105.44H242.156V76.756H236.796ZM239.476 102.76H150.596V108.12H239.476V102.76ZM153.276 105.44V76.756H147.916V105.44H153.276ZM150.596 79.436H239.476V74.076H150.596V79.436ZM304.334 135.336H301.654C301.654 136.816 302.853 138.016 304.334 138.016V135.336ZM349.582 135.336H352.262C352.262 133.856 351.062 132.656 349.582 132.656V135.336ZM349.582 162V164.68C351.062 164.68 352.262 163.48 352.262 162H349.582ZM269.792 162H267.112C267.112 163.48 268.311 164.68 269.792 164.68V162ZM269.792 20.196V17.516C268.311 17.516 267.112 18.7159 267.112 20.196H269.792ZM304.334 20.196H307.014C307.014 18.7159 305.814 17.516 304.334 17.516V20.196ZM304.334 138.016H349.582V132.656H304.334V138.016ZM346.902 135.336V162H352.262V135.336H346.902ZM349.582 159.32H269.792V164.68H349.582V159.32ZM272.472 162V20.196H267.112V162H272.472ZM269.792 22.876H304.334V17.516H269.792V22.876ZM301.654 20.196V135.336H307.014V20.196H301.654ZM471.703 113.924V116.604C473.064 116.604 474.21 115.583 474.366 114.231L471.703 113.924ZM393.529 113.924V111.244C392.783 111.244 392.07 111.555 391.563 112.103C391.056 112.651 390.8 113.385 390.857 114.13L393.529 113.924ZM400.195 130.084L398.334 132.012C398.356 132.034 398.379 132.055 398.402 132.076L400.195 130.084ZM432.919 124.63V121.95C431.875 121.95 430.926 122.556 430.487 123.504L432.919 124.63ZM469.683 124.63L472.28 125.291C472.484 124.489 472.307 123.638 471.799 122.985C471.291 122.332 470.51 121.95 469.683 121.95V124.63ZM459.381 144.628L457.33 142.903C457.322 142.912 457.315 142.922 457.307 142.931L459.381 144.628ZM440.999 158.566L442.108 161.006L440.999 158.566ZM386.661 156.546L385.375 158.897L385.375 158.897L386.661 156.546ZM366.461 136.346L368.806 135.048L368.806 135.048L366.461 136.346ZM366.259 74.938L363.915 73.6395C363.91 73.6488 363.905 73.6581 363.9 73.6674L366.259 74.938ZM386.459 54.738L387.745 57.0894L387.745 57.0894L386.459 54.738ZM445.241 54.536L443.968 56.8945L443.968 56.8945L445.241 54.536ZM465.037 74.13L462.694 75.4315C462.7 75.4409 462.705 75.4503 462.71 75.4596L465.037 74.13ZM436.959 94.734V97.414C438.439 97.414 439.639 96.2141 439.639 94.734H436.959ZM430.899 80.594L432.654 78.5687L432.654 78.5687L430.899 80.594ZM401.003 80.392L399.288 78.3332C399.276 78.3427 399.265 78.3524 399.253 78.3621L401.003 80.392ZM393.731 94.734L391.082 94.3308C390.964 95.1031 391.189 95.8882 391.699 96.4807C392.208 97.0732 392.95 97.414 393.731 97.414V94.734ZM469.629 103.824C469.629 106.945 469.434 110.208 469.041 113.617L474.366 114.231C474.78 110.637 474.989 107.167 474.989 103.824H469.629ZM471.703 111.244H393.529V116.604H471.703V111.244ZM390.857 114.13C391.431 121.589 393.831 127.665 398.334 132.012L402.057 128.156C398.748 124.962 396.705 120.264 396.201 113.718L390.857 114.13ZM398.402 132.076C402.969 136.186 408.536 138.218 414.941 138.218V132.858C409.765 132.858 405.502 131.254 401.988 128.092L398.402 132.076ZM414.941 138.218C419.628 138.218 423.788 137.227 427.29 135.102C430.804 132.97 433.477 129.804 435.351 125.756L430.487 123.504C428.995 126.728 426.988 129.016 424.51 130.52C422.019 132.031 418.873 132.858 414.941 132.858V138.218ZM432.919 127.31H469.683V121.95H432.919V127.31ZM467.086 123.969C465.302 130.979 462.056 137.283 457.33 142.903L461.432 146.353C466.671 140.123 470.294 133.094 472.28 125.291L467.086 123.969ZM457.307 142.931C452.736 148.518 446.946 152.919 439.89 156.126L442.108 161.006C449.865 157.48 456.331 152.589 461.455 146.325L457.307 142.931ZM439.89 156.126C432.873 159.316 424.976 160.936 416.153 160.936V166.296C425.645 166.296 434.312 164.55 442.108 161.006L439.89 156.126ZM416.153 160.936C405.503 160.936 396.125 158.667 387.947 154.195L385.375 158.897C394.435 163.852 404.718 166.296 416.153 166.296V160.936ZM387.947 154.195C379.783 149.73 373.412 143.365 368.806 135.048L364.117 137.644C369.206 146.833 376.302 153.936 385.375 158.897L387.947 154.195ZM368.806 135.048C364.213 126.755 361.869 116.982 361.869 105.642H356.509C356.509 117.734 359.014 128.431 364.117 137.644L368.806 135.048ZM361.869 105.642C361.869 94.2903 364.15 84.5072 368.619 76.2086L363.9 73.6674C358.941 82.8755 356.509 93.5617 356.509 105.642H361.869ZM368.604 76.2365C373.21 67.9185 379.581 61.5543 387.745 57.0894L385.173 52.3866C376.1 57.3483 369.004 64.4508 363.915 73.6395L368.604 76.2365ZM387.745 57.0894C395.918 52.6199 405.363 50.348 416.153 50.348V44.988C404.589 44.988 394.238 47.4295 385.173 52.3866L387.745 57.0894ZM416.153 50.348C426.676 50.348 435.924 52.5533 443.968 56.8945L446.514 52.1775C437.59 47.3614 427.446 44.988 416.153 44.988V50.348ZM443.968 56.8945C451.999 61.2284 458.228 67.3915 462.694 75.4315L467.38 72.8285C462.42 63.9004 455.451 57.0009 446.514 52.1775L443.968 56.8945ZM462.71 75.4596C467.293 83.4787 469.629 92.904 469.629 103.824H474.989C474.989 92.12 472.478 81.7493 467.364 72.8003L462.71 75.4596ZM439.639 94.734C439.639 88.1259 437.35 82.6379 432.654 78.5687L429.144 82.6192C432.529 85.5527 434.279 89.4914 434.279 94.734H439.639ZM432.654 78.5687C428.062 74.5886 422.362 72.662 415.749 72.662V78.022C421.256 78.022 425.656 79.5967 429.144 82.6192L432.654 78.5687ZM415.749 72.662C409.399 72.662 403.859 74.5238 399.288 78.3332L402.719 82.4508C406.228 79.5269 410.518 78.022 415.749 78.022V72.662ZM399.253 78.3621C394.765 82.2313 392.099 87.6458 391.082 94.3308L396.381 95.1372C397.249 89.4329 399.431 85.286 402.753 82.4219L399.253 78.3621ZM393.731 97.414H436.959V92.054H393.731V97.414ZM490.128 74.938L487.738 73.7248C487.733 73.7346 487.728 73.7444 487.723 73.7543L490.128 74.938ZM508.106 54.738L509.526 57.0106L509.526 57.0106L508.106 54.738ZM554.162 52.516L552.878 54.8687C552.886 54.8728 552.893 54.8767 552.901 54.8807L554.162 52.516ZM568.1 65.242L565.817 66.6466C566.446 67.6677 567.676 68.1472 568.83 67.8207C569.983 67.4941 570.78 66.441 570.78 65.242H568.1ZM568.1 49.284V46.604C566.62 46.604 565.42 47.8039 565.42 49.284H568.1ZM602.642 49.284H605.322C605.322 47.8039 604.122 46.604 602.642 46.604V49.284ZM602.642 162V164.68C604.122 164.68 605.322 163.48 605.322 162H602.642ZM568.1 162H565.42C565.42 163.48 566.62 164.68 568.1 164.68V162ZM568.1 146.042H570.78C570.78 144.852 569.995 143.805 568.853 143.47C567.711 143.136 566.486 143.594 565.844 144.596L568.1 146.042ZM553.96 158.768L552.699 156.403C552.691 156.407 552.684 156.411 552.676 156.415L553.96 158.768ZM508.106 156.546L506.657 158.8C506.666 158.807 506.676 158.813 506.685 158.819L508.106 156.546ZM490.128 136.144L487.716 137.313C487.723 137.328 487.731 137.343 487.738 137.357L490.128 136.144ZM560.828 85.24L558.881 87.0817C558.89 87.0908 558.898 87.0999 558.907 87.1089L560.828 85.24ZM525.882 85.24L523.961 83.3711L523.96 83.3718L525.882 85.24ZM525.882 126.044L523.911 127.86C523.927 127.878 523.944 127.895 523.961 127.913L525.882 126.044ZM560.828 126.044L558.907 124.175C558.898 124.184 558.89 124.193 558.881 124.202L560.828 126.044ZM486.344 105.44C486.344 94.193 488.435 84.4441 492.532 76.1217L487.723 73.7543C483.202 82.9386 480.984 93.5243 480.984 105.44H486.344ZM492.517 76.1512C496.764 67.7861 502.44 61.4392 509.526 57.0106L506.685 52.4654C498.689 57.4634 492.379 64.5832 487.738 73.7248L492.517 76.1512ZM509.526 57.0106C516.622 52.5758 524.542 50.348 533.356 50.348V44.988C523.585 44.988 514.672 47.4736 506.685 52.4654L509.526 57.0106ZM533.356 50.348C540.932 50.348 547.411 51.8866 552.878 54.8687L555.445 50.1632C549.062 46.6814 541.67 44.988 533.356 44.988V50.348ZM552.901 54.8807C558.59 57.915 562.862 61.8443 565.817 66.6466L570.382 63.8374C566.874 58.1357 561.854 53.581 555.423 50.1513L552.901 54.8807ZM570.78 65.242V49.284H565.42V65.242H570.78ZM568.1 51.964H602.642V46.604H568.1V51.964ZM599.962 49.284V162H605.322V49.284H599.962ZM602.642 159.32H568.1V164.68H602.642V159.32ZM570.78 162V146.042H565.42V162H570.78ZM565.844 144.596C562.749 149.423 558.396 153.365 552.699 156.403L555.221 161.133C561.644 157.707 566.717 153.165 570.356 147.488L565.844 144.596ZM552.676 156.415C547.209 159.397 540.73 160.936 533.154 160.936V166.296C541.468 166.296 548.86 164.603 555.243 161.121L552.676 156.415ZM533.154 160.936C524.483 160.936 516.628 158.712 509.526 154.273L506.685 158.819C514.666 163.806 523.51 166.296 533.154 166.296V160.936ZM509.555 154.292C502.452 149.725 496.767 143.301 492.517 134.931L487.738 137.357C492.377 146.493 498.677 153.671 506.657 158.8L509.555 154.292ZM492.539 134.975C488.435 126.509 486.344 116.686 486.344 105.44H480.984C480.984 117.357 483.202 128.003 487.716 137.313L492.539 134.975ZM570.78 105.642C570.78 96.5018 568.194 88.9677 562.749 83.3711L558.907 87.1089C563.158 91.4776 565.42 97.5449 565.42 105.642H570.78ZM562.775 83.3983C557.554 77.8797 551.059 75.086 543.456 75.086V80.446C549.588 80.446 554.675 82.635 558.881 87.0817L562.775 83.3983ZM543.456 75.086C535.854 75.086 529.307 77.877 523.961 83.3711L527.803 87.1089C532.153 82.6376 537.321 80.446 543.456 80.446V75.086ZM523.96 83.3718C518.637 88.8473 516.132 96.3238 516.132 105.44H521.492C521.492 97.3188 523.7 91.3287 527.803 87.1082L523.96 83.3718ZM516.132 105.44C516.132 114.563 518.639 122.136 523.911 127.86L527.853 124.228C523.698 119.717 521.492 113.554 521.492 105.44H516.132ZM523.961 127.913C529.307 133.407 535.854 136.198 543.456 136.198V130.838C537.321 130.838 532.153 128.646 527.803 124.175L523.961 127.913ZM543.456 136.198C551.059 136.198 557.554 133.404 562.775 127.886L558.881 124.202C554.675 128.649 549.588 130.838 543.456 130.838V136.198ZM562.749 127.913C568.194 122.316 570.78 114.782 570.78 105.642H565.42C565.42 113.739 563.158 119.806 558.907 124.175L562.749 127.913ZM662.173 68.07H659.493C659.493 69.256 660.273 70.3009 661.41 70.6389C662.547 70.9768 663.77 70.5274 664.418 69.534L662.173 68.07ZM677.323 53.526L678.664 55.8465C678.677 55.8391 678.69 55.8317 678.702 55.8241L677.323 53.526ZM697.523 48.072H700.203C700.203 46.5919 699.004 45.392 697.523 45.392V48.072ZM697.523 84.634V87.314C699.004 87.314 700.203 86.1141 700.203 84.634H697.523ZM668.637 90.29L670.366 92.3383C670.378 92.3279 670.39 92.3175 670.402 92.3069L668.637 90.29ZM662.173 162V164.68C663.654 164.68 664.853 163.48 664.853 162H662.173ZM627.631 162H624.951C624.951 163.48 626.151 164.68 627.631 164.68V162ZM627.631 49.284V46.604C626.151 46.604 624.951 47.8039 624.951 49.284H627.631ZM662.173 49.284H664.853C664.853 47.8039 663.654 46.604 662.173 46.604V49.284ZM664.418 69.534C668.242 63.6713 672.989 59.1254 678.664 55.8465L675.983 51.2055C669.538 54.9293 664.185 60.0793 659.929 66.606L664.418 69.534ZM678.702 55.8241C684.325 52.4502 690.578 50.752 697.523 50.752V45.392C689.655 45.392 682.442 47.3298 675.945 51.2279L678.702 55.8241ZM694.843 48.072V84.634H700.203V48.072H694.843ZM697.523 81.954H688.029V87.314H697.523V81.954ZM688.029 81.954C679.079 81.954 671.866 83.9042 666.873 88.2731L670.402 92.3069C674.028 89.1345 679.742 87.314 688.029 87.314V81.954ZM666.909 88.2417C661.698 92.639 659.493 100.1 659.493 109.682H664.853C664.853 100.68 666.959 95.213 670.366 92.3383L666.909 88.2417ZM659.493 109.682V162H664.853V109.682H659.493ZM662.173 159.32H627.631V164.68H662.173V159.32ZM630.311 162V49.284H624.951V162H630.311ZM627.631 51.964H662.173V46.604H627.631V51.964ZM659.493 49.284V68.07H664.853V49.284H659.493ZM814.226 61L812.24 62.7997C812.25 62.8105 812.26 62.8213 812.27 62.8319L814.226 61ZM826.144 162V164.68C827.624 164.68 828.824 163.48 828.824 162H826.144ZM791.804 162H789.124C789.124 163.48 790.324 164.68 791.804 164.68V162ZM785.946 83.22L783.989 85.0509L783.989 85.0509L785.946 83.22ZM754.434 83.22L756.391 85.0509L756.391 85.0509L754.434 83.22ZM748.576 162V164.68C750.056 164.68 751.256 163.48 751.256 162H748.576ZM714.034 162H711.354C711.354 163.48 712.554 164.68 714.034 164.68V162ZM714.034 49.284V46.604C712.554 46.604 711.354 47.8039 711.354 49.284H714.034ZM748.576 49.284H751.256C751.256 47.8039 750.056 46.604 748.576 46.604V49.284ZM748.576 64.232H745.896C745.896 65.4008 746.653 66.4349 747.768 66.7873C748.882 67.1397 750.096 66.7292 750.769 65.7728L748.576 64.232ZM762.716 52.516L763.87 54.9346C763.885 54.9276 763.9 54.9204 763.914 54.9131L762.716 52.516ZM782.714 50.752C795.267 50.752 805.008 54.82 812.24 62.7997L816.212 59.2003C807.822 49.9427 796.555 45.392 782.714 45.392V50.752ZM812.27 62.8319C819.628 70.6895 823.464 81.6788 823.464 96.148H828.824C828.824 80.7212 824.714 68.2785 816.182 59.1681L812.27 62.8319ZM823.464 96.148V162H828.824V96.148H823.464ZM826.144 159.32H791.804V164.68H826.144V159.32ZM794.484 162V100.794H789.124V162H794.484ZM794.484 100.794C794.484 92.7956 792.405 86.2021 787.903 81.3891L783.989 85.0509C787.297 88.5873 789.124 93.7098 789.124 100.794H794.484ZM787.903 81.3891C783.411 76.5876 777.405 74.278 770.19 74.278V79.638C776.172 79.638 780.67 81.5031 783.989 85.0509L787.903 81.3891ZM770.19 74.278C762.975 74.278 756.968 76.5876 752.477 81.3891L756.391 85.0509C759.71 81.5031 764.208 79.638 770.19 79.638V74.278ZM752.477 81.3891C747.974 86.2021 745.896 92.7956 745.896 100.794H751.256C751.256 93.7098 753.083 88.5873 756.391 85.0509L752.477 81.3891ZM745.896 100.794V162H751.256V100.794H745.896ZM748.576 159.32H714.034V164.68H748.576V159.32ZM716.714 162V49.284H711.354V162H716.714ZM714.034 51.964H748.576V46.604H714.034V51.964ZM745.896 49.284V64.232H751.256V49.284H745.896ZM750.769 65.7728C753.984 61.1964 758.327 57.5802 763.87 54.9346L761.561 50.0973C755.254 53.1078 750.17 57.3022 746.383 62.6911L750.769 65.7728ZM763.914 54.9131C769.426 52.1575 775.674 50.752 782.714 50.752V45.392C774.941 45.392 767.857 46.9492 761.517 50.1189L763.914 54.9131ZM852.571 32.316L850.711 34.2452C850.734 34.2677 850.758 34.2898 850.782 34.3114L852.571 32.316ZM852.571 5.65199L854.395 7.61588L854.397 7.61347L852.571 5.65199ZM882.063 5.65199L880.203 7.58117C880.226 7.60369 880.25 7.62578 880.274 7.64744L882.063 5.65199ZM882.063 32.316L883.887 34.2799L883.889 34.2775L882.063 32.316ZM884.689 49.284H887.369C887.369 47.8039 886.169 46.604 884.689 46.604V49.284ZM884.689 162V164.68C886.169 164.68 887.369 163.48 887.369 162H884.689ZM850.147 162H847.467C847.467 163.48 848.667 164.68 850.147 164.68V162ZM850.147 49.284V46.604C848.667 46.604 847.467 47.8039 847.467 49.284H850.147ZM867.519 34.888C862.01 34.888 857.698 33.3132 854.36 30.3205L850.782 34.3114C855.255 38.3214 860.908 40.248 867.519 40.248V34.888ZM854.431 30.3868C851.186 27.2574 849.595 23.5105 849.595 18.984H844.235C844.235 24.9615 846.415 30.1026 850.711 34.2452L854.431 30.3868ZM849.595 18.984C849.595 14.3032 851.198 10.584 854.395 7.61588L850.747 3.6881C846.402 7.7227 844.235 12.8915 844.235 18.984H849.595ZM854.397 7.61347C857.739 4.50257 862.038 2.87799 867.519 2.87799V-2.48201C860.88 -2.48201 855.214 -0.47059 850.745 3.69051L854.397 7.61347ZM867.519 2.87799C872.849 2.87799 876.998 4.49123 880.203 7.58117L883.923 3.72281C879.586 -0.459249 874.04 -2.48201 867.519 -2.48201V2.87799ZM880.274 7.64744C883.595 10.625 885.241 14.3354 885.241 18.984H890.601C890.601 12.8592 888.342 7.68166 883.852 3.65654L880.274 7.64744ZM885.241 18.984C885.241 23.4786 883.608 27.2163 880.237 30.3545L883.889 34.2775C888.329 30.1437 890.601 24.9934 890.601 18.984H885.241ZM880.239 30.3521C877.04 33.3235 872.878 34.888 867.519 34.888V40.248C874.011 40.248 879.545 38.3112 883.887 34.2799L880.239 30.3521ZM882.009 49.284V162H887.369V49.284H882.009ZM884.689 159.32H850.147V164.68H884.689V159.32ZM852.827 162V49.284H847.467V162H852.827ZM850.147 51.964H884.689V46.604H850.147V51.964ZM1009.91 61L1007.93 62.7997C1007.94 62.8105 1007.95 62.8213 1007.96 62.8319L1009.91 61ZM1021.83 162V164.68C1023.31 164.68 1024.51 163.48 1024.51 162H1021.83ZM987.491 162H984.811C984.811 163.48 986.011 164.68 987.491 164.68V162ZM981.633 83.22L979.676 85.0509L979.676 85.0509L981.633 83.22ZM950.121 83.22L952.078 85.0509L952.078 85.0509L950.121 83.22ZM944.263 162V164.68C945.743 164.68 946.943 163.48 946.943 162H944.263ZM909.721 162H907.041C907.041 163.48 908.241 164.68 909.721 164.68V162ZM909.721 49.284V46.604C908.241 46.604 907.041 47.8039 907.041 49.284H909.721ZM944.263 49.284H946.943C946.943 47.8039 945.743 46.604 944.263 46.604V49.284ZM944.263 64.232H941.583C941.583 65.4008 942.341 66.4349 943.455 66.7873C944.57 67.1397 945.784 66.7292 946.456 65.7728L944.263 64.232ZM958.403 52.516L959.558 54.9346C959.572 54.9276 959.587 54.9204 959.602 54.9131L958.403 52.516ZM978.401 50.752C990.955 50.752 1000.7 54.82 1007.93 62.7997L1011.9 59.2003C1003.51 49.9427 992.242 45.392 978.401 45.392V50.752ZM1007.96 62.8319C1015.32 70.6895 1019.15 81.6788 1019.15 96.148H1024.51C1024.51 80.7212 1020.4 68.2785 1011.87 59.1681L1007.96 62.8319ZM1019.15 96.148V162H1024.51V96.148H1019.15ZM1021.83 159.32H987.491V164.68H1021.83V159.32ZM990.171 162V100.794H984.811V162H990.171ZM990.171 100.794C990.171 92.7956 988.093 86.2021 983.59 81.3891L979.676 85.0509C982.984 88.5873 984.811 93.7098 984.811 100.794H990.171ZM983.59 81.3891C979.099 76.5876 973.092 74.278 965.877 74.278V79.638C971.859 79.638 976.357 81.5031 979.676 85.0509L983.59 81.3891ZM965.877 74.278C958.662 74.278 952.656 76.5876 948.164 81.3891L952.078 85.0509C955.397 81.5031 959.895 79.638 965.877 79.638V74.278ZM948.164 81.3891C943.662 86.2021 941.583 92.7956 941.583 100.794H946.943C946.943 93.7098 948.77 88.5873 952.078 85.0509L948.164 81.3891ZM941.583 100.794V162H946.943V100.794H941.583ZM944.263 159.32H909.721V164.68H944.263V159.32ZM912.401 162V49.284H907.041V162H912.401ZM909.721 51.964H944.263V46.604H909.721V51.964ZM941.583 49.284V64.232H946.943V49.284H941.583ZM946.456 65.7728C949.672 61.1964 954.015 57.5802 959.558 54.9346L957.249 50.0973C950.941 53.1078 945.857 57.3022 942.071 62.6911L946.456 65.7728ZM959.602 54.9131C965.113 52.1575 971.361 50.752 978.401 50.752V45.392C970.628 45.392 963.544 46.9492 957.205 50.1189L959.602 54.9131ZM1109.46 52.516L1108.18 54.8687C1108.19 54.8728 1108.2 54.8767 1108.2 54.8807L1109.46 52.516ZM1123.4 65.242L1121.12 66.6466C1121.75 67.6677 1122.98 68.1472 1124.13 67.8207C1125.29 67.4941 1126.08 66.441 1126.08 65.242H1123.4ZM1123.4 49.284V46.604C1121.92 46.604 1120.72 47.8039 1120.72 49.284H1123.4ZM1157.94 49.284H1160.62C1160.62 47.8039 1159.42 46.604 1157.94 46.604V49.284ZM1151.68 189.876L1149.29 188.677C1149.28 188.693 1149.27 188.708 1149.26 188.724L1151.68 189.876ZM1132.9 210.076L1131.54 207.765C1131.53 207.768 1131.53 207.771 1131.52 207.775L1132.9 210.076ZM1060.98 205.632L1062.61 203.505C1062.61 203.5 1062.6 203.496 1062.6 203.491L1060.98 205.632ZM1043.21 173.716V171.036C1042.45 171.036 1041.72 171.36 1041.21 171.928C1040.7 172.495 1040.46 173.252 1040.54 174.009L1043.21 173.716ZM1077.35 173.716L1079.95 173.066C1079.65 171.873 1078.58 171.036 1077.35 171.036V173.716ZM1085.02 183.816L1086.46 181.552C1086.44 181.54 1086.42 181.529 1086.4 181.518L1085.02 183.816ZM1116.94 181.392L1115.11 179.437C1115.08 179.457 1115.06 179.477 1115.04 179.497L1116.94 181.392ZM1123.4 145.84H1126.08C1126.08 144.65 1125.3 143.603 1124.16 143.268C1123.01 142.934 1121.79 143.392 1121.15 144.394L1123.4 145.84ZM1109.46 158.768L1110.75 161.121C1110.76 161.113 1110.78 161.106 1110.79 161.098L1109.46 158.768ZM1063.41 156.546L1061.96 158.8C1061.97 158.807 1061.98 158.813 1061.99 158.819L1063.41 156.546ZM1045.43 136.144L1043.02 137.313C1043.03 137.328 1043.03 137.343 1043.04 137.357L1045.43 136.144ZM1045.43 74.938L1043.04 73.7248C1043.04 73.7346 1043.03 73.7444 1043.03 73.7543L1045.43 74.938ZM1063.41 54.738L1064.83 57.0106L1064.83 57.0106L1063.41 54.738ZM1116.13 85.24L1114.18 87.0817C1114.19 87.0908 1114.2 87.0999 1114.21 87.1089L1116.13 85.24ZM1081.18 85.24L1079.26 83.3711L1079.26 83.3718L1081.18 85.24ZM1081.18 126.044L1079.21 127.86C1079.23 127.878 1079.25 127.895 1079.26 127.913L1081.18 126.044ZM1116.13 126.044L1114.21 124.175C1114.2 124.184 1114.19 124.193 1114.18 124.202L1116.13 126.044ZM1088.66 50.348C1096.24 50.348 1102.71 51.8866 1108.18 54.8687L1110.75 50.1632C1104.36 46.6814 1096.97 44.988 1088.66 44.988V50.348ZM1108.2 54.8807C1113.89 57.915 1118.16 61.8443 1121.12 66.6466L1125.68 63.8374C1122.18 58.1357 1117.16 53.581 1110.73 50.1513L1108.2 54.8807ZM1126.08 65.242V49.284H1120.72V65.242H1126.08ZM1123.4 51.964H1157.94V46.604H1123.4V51.964ZM1155.26 49.284V161.798H1160.62V49.284H1155.26ZM1155.26 161.798C1155.26 171.798 1153.25 180.74 1149.29 188.677L1154.08 191.075C1158.46 182.313 1160.62 172.537 1160.62 161.798H1155.26ZM1149.26 188.724C1145.46 196.7 1139.58 203.04 1131.54 207.765L1134.25 212.387C1143.18 207.146 1149.82 200.02 1154.1 191.028L1149.26 188.724ZM1131.52 207.775C1123.69 212.448 1113.76 214.87 1101.59 214.87V220.23C1114.46 220.23 1125.4 217.67 1134.27 212.377L1131.52 207.775ZM1101.59 214.87C1085.31 214.87 1072.4 211.002 1062.61 203.505L1059.35 207.759C1070.31 216.152 1084.46 220.23 1101.59 220.23V214.87ZM1062.6 203.491C1052.85 196.147 1047.28 186.191 1045.87 173.423L1040.54 174.009C1042.1 188.174 1048.38 199.496 1059.37 207.773L1062.6 203.491ZM1043.21 176.396H1077.35V171.036H1043.21V176.396ZM1074.75 174.366C1076.01 179.41 1079.04 183.349 1083.64 186.114L1086.4 181.518C1082.93 179.435 1080.84 176.641 1079.95 173.066L1074.75 174.366ZM1083.59 186.08C1088.15 188.969 1093.66 190.334 1099.97 190.334V184.974C1094.43 184.974 1089.98 183.781 1086.46 181.552L1083.59 186.08ZM1099.97 190.334C1107.66 190.334 1114.05 188.066 1118.83 183.287L1115.04 179.497C1111.47 183.067 1106.56 184.974 1099.97 184.974V190.334ZM1118.77 183.347C1123.85 178.586 1126.08 171.174 1126.08 161.798H1120.72C1120.72 170.467 1118.65 176.118 1115.11 179.437L1118.77 183.347ZM1126.08 161.798V145.84H1120.72V161.798H1126.08ZM1121.15 144.394C1118.04 149.247 1113.72 153.266 1108.14 156.438L1110.79 161.098C1117.06 157.537 1122.04 152.937 1125.66 147.286L1121.15 144.394ZM1108.18 156.415C1102.71 159.397 1096.24 160.936 1088.66 160.936V166.296C1096.97 166.296 1104.36 164.603 1110.75 161.121L1108.18 156.415ZM1088.66 160.936C1079.85 160.936 1071.92 158.708 1064.83 154.273L1061.99 158.819C1069.98 163.81 1078.89 166.296 1088.66 166.296V160.936ZM1064.86 154.292C1057.75 149.725 1052.07 143.301 1047.82 134.931L1043.04 137.357C1047.68 146.493 1053.98 153.671 1061.96 158.8L1064.86 154.292ZM1047.84 134.975C1043.74 126.509 1041.65 116.686 1041.65 105.44H1036.29C1036.29 117.357 1038.51 128.003 1043.02 137.313L1047.84 134.975ZM1041.65 105.44C1041.65 94.193 1043.74 84.4441 1047.83 76.1217L1043.03 73.7543C1038.5 82.9386 1036.29 93.5243 1036.29 105.44H1041.65ZM1047.82 76.1512C1052.07 67.7861 1057.74 61.4392 1064.83 57.0106L1061.99 52.4654C1053.99 57.4634 1047.68 64.5832 1043.04 73.7248L1047.82 76.1512ZM1064.83 57.0106C1071.92 52.5758 1079.85 50.348 1088.66 50.348V44.988C1078.89 44.988 1069.98 47.4736 1061.99 52.4654L1064.83 57.0106ZM1126.08 105.642C1126.08 96.5018 1123.5 88.9677 1118.05 83.3711L1114.21 87.1089C1118.46 91.4776 1120.72 97.5449 1120.72 105.642H1126.08ZM1118.08 83.3983C1112.86 77.8797 1106.36 75.086 1098.76 75.086V80.446C1104.89 80.446 1109.98 82.635 1114.18 87.0817L1118.08 83.3983ZM1098.76 75.086C1091.16 75.086 1084.61 77.877 1079.26 83.3711L1083.11 87.1089C1087.46 82.6376 1092.62 80.446 1098.76 80.446V75.086ZM1079.26 83.3718C1073.94 88.8473 1071.43 96.3238 1071.43 105.44H1076.79C1076.79 97.3188 1079 91.3287 1083.11 87.1082L1079.26 83.3718ZM1071.43 105.44C1071.43 114.563 1073.94 122.136 1079.21 127.86L1083.16 124.228C1079 119.717 1076.79 113.554 1076.79 105.44H1071.43ZM1079.26 127.913C1084.61 133.407 1091.16 136.198 1098.76 136.198V130.838C1092.62 130.838 1087.46 128.646 1083.11 124.175L1079.26 127.913ZM1098.76 136.198C1106.36 136.198 1112.86 133.404 1118.08 127.886L1114.18 124.202C1109.98 128.649 1104.89 130.838 1098.76 130.838V136.198ZM1118.05 127.913C1123.5 122.316 1126.08 114.782 1126.08 105.642H1120.72C1120.72 113.739 1118.46 119.806 1114.21 124.175L1118.05 127.913Z" fill="black" mask="url(#path-1-outside-1_1_322)"/>
</svg>
