<svg width="60" height="60" viewBox="0 0 60 60" fill="none" xmlns="http://www.w3.org/2000/svg">
<path d="M4.99963 35C4.99963 25.5725 4.99963 20.8575 7.92963 17.93C10.8571 15 15.5721 15 24.9996 15H34.9996C44.4271 15 49.1421 15 52.0696 17.93C53.7046 19.5625 54.4271 21.75 54.7446 25M54.9996 35C54.9996 44.4275 54.9996 49.1425 52.0696 52.07C49.1421 55 44.4271 55 34.9996 55H24.9996C15.5721 55 10.8571 55 7.92963 52.07C6.29463 50.4375 5.57213 48.25 5.25463 45" stroke="#297515" stroke-width="3.75" stroke-linecap="round"/>
<path d="M39.9996 15C39.9996 10.285 39.9996 7.93 38.5346 6.465C37.0696 5 34.7146 5 29.9996 5C25.2846 5 22.9296 5 21.4646 6.465C19.9996 7.93 19.9996 10.285 19.9996 15" stroke="#297515" stroke-width="3.75"/>
<path d="M33.7498 35H26.2498M29.9998 31.25V38.75" stroke="#297515" stroke-width="3.75" stroke-linecap="round"/>
<path d="M29.9996 45C35.5225 45 39.9996 40.5228 39.9996 35C39.9996 29.4772 35.5225 25 29.9996 25C24.4768 25 19.9996 29.4772 19.9996 35C19.9996 40.5228 24.4768 45 29.9996 45Z" stroke="#297515" stroke-width="3.75"/>
</svg>
