<svg width="55" height="46" viewBox="0 0 55 46" fill="none" xmlns="http://www.w3.org/2000/svg">
<path d="M0.624023 43V38.5C0.624023 37.125 0.97819 35.8333 1.68652 34.625C2.39486 33.4167 3.37402 32.5 4.62402 31.875C6.74902 30.7917 9.14486 29.875 11.8115 29.125C14.4782 28.375 17.4157 28 20.624 28C23.8324 28 26.7699 28.375 29.4365 29.125C32.1032 29.875 34.499 30.7917 36.624 31.875C37.874 32.5 38.8532 33.4167 39.5615 34.625C40.2699 35.8333 40.624 37.125 40.624 38.5V43C40.624 43.7083 40.384 44.3025 39.904 44.7825C39.424 45.2625 38.8307 45.5017 38.124 45.5H3.12402C2.41569 45.5 1.82236 45.26 1.34402 44.78C0.86569 44.3 0.62569 43.7067 0.624023 43ZM5.62402 40.5H35.624V38.5C35.624 38.0417 35.509 37.625 35.279 37.25C35.049 36.875 34.7474 36.5833 34.374 36.375C32.874 35.625 30.9465 34.875 28.5915 34.125C26.2365 33.375 23.5807 33 20.624 33C17.6657 33 15.009 33.375 12.654 34.125C10.299 34.875 8.37236 35.625 6.87402 36.375C6.49902 36.5833 6.19736 36.875 5.96902 37.25C5.74069 37.625 5.62569 38.0417 5.62402 38.5V40.5ZM20.624 25.5C17.874 25.5 15.5199 24.5208 13.5615 22.5625C11.6032 20.6042 10.624 18.25 10.624 15.5H9.99902C9.62402 15.5 9.32236 15.385 9.09402 15.155C8.86569 14.925 8.75069 14.6233 8.74902 14.25C8.74902 13.875 8.86402 13.5725 9.09402 13.3425C9.32402 13.1125 9.62569 12.9983 9.99902 13H10.624C10.624 11.125 11.0824 9.4375 11.999 7.9375C12.9157 6.4375 14.124 5.25 15.624 4.375V6.75C15.624 7.125 15.739 7.4275 15.969 7.6575C16.199 7.8875 16.5007 8.00167 16.874 8C17.249 8 17.5515 7.885 17.7815 7.655C18.0115 7.425 18.1257 7.12333 18.124 6.75V3.375C18.499 3.25 18.8949 3.15583 19.3115 3.0925C19.7282 3.02917 20.1657 2.99833 20.624 3C21.0824 3 21.5199 3.03167 21.9365 3.095C22.3532 3.15833 22.749 3.25167 23.124 3.375V6.75C23.124 7.125 23.239 7.4275 23.469 7.6575C23.699 7.8875 24.0007 8.00167 24.374 8C24.749 8 25.0515 7.885 25.2815 7.655C25.5115 7.425 25.6257 7.12333 25.624 6.75V4.375C27.124 5.25 28.3324 6.4375 29.249 7.9375C30.1657 9.4375 30.624 11.125 30.624 13H31.249C31.624 13 31.9265 13.115 32.1565 13.345C32.3865 13.575 32.5007 13.8767 32.499 14.25C32.499 14.625 32.384 14.9275 32.154 15.1575C31.924 15.3875 31.6224 15.5017 31.249 15.5H30.624C30.624 18.25 29.6449 20.6042 27.6865 22.5625C25.7282 24.5208 23.374 25.5 20.624 25.5ZM20.624 20.5C21.999 20.5 23.1765 20.01 24.1565 19.03C25.1365 18.05 25.6257 16.8733 25.624 15.5H15.624C15.624 16.875 16.114 18.0525 17.094 19.0325C18.074 20.0125 19.2507 20.5017 20.624 20.5ZM39.1865 29.5L38.999 28.625C38.749 28.5417 38.5099 28.4475 38.2815 28.3425C38.0532 28.2375 37.834 28.0817 37.624 27.875L36.874 28.125C36.5824 28.2083 36.3007 28.2083 36.029 28.125C35.7574 28.0417 35.539 27.8542 35.374 27.5625L35.124 27.125C34.9574 26.875 34.9057 26.6042 34.969 26.3125C35.0324 26.0208 35.1674 25.7708 35.374 25.5625L35.999 25V23.5L35.374 22.9375C35.1657 22.7292 35.0307 22.4792 34.969 22.1875C34.9074 21.8958 34.959 21.625 35.124 21.375L35.374 20.9375C35.5407 20.6458 35.7599 20.4583 36.0315 20.375C36.3032 20.2917 36.584 20.2917 36.874 20.375L37.624 20.625C37.7907 20.4583 37.999 20.3125 38.249 20.1875C38.499 20.0625 38.749 19.9583 38.999 19.875L39.1865 19C39.2699 18.7083 39.4157 18.4683 39.624 18.28C39.8324 18.0917 40.0824 17.9983 40.374 18H40.874C41.1657 18 41.4157 18.0942 41.624 18.2825C41.8324 18.4708 41.9782 18.71 42.0615 19L42.249 19.875C42.499 19.9583 42.749 20.0625 42.999 20.1875C43.249 20.3125 43.4574 20.4583 43.624 20.625L44.374 20.375C44.6657 20.2917 44.9474 20.2917 45.219 20.375C45.4907 20.4583 45.709 20.6458 45.874 20.9375L46.124 21.375C46.2907 21.625 46.3432 21.8958 46.2815 22.1875C46.2199 22.4792 46.084 22.7292 45.874 22.9375L45.249 23.5V25L45.874 25.5625C46.0824 25.7708 46.2182 26.0208 46.2815 26.3125C46.3449 26.6042 46.2924 26.875 46.124 27.125L45.874 27.5625C45.7074 27.8542 45.489 28.0417 45.219 28.125C44.949 28.2083 44.6674 28.2083 44.374 28.125L43.624 27.875C43.4157 28.0833 43.1974 28.24 42.969 28.345C42.7407 28.45 42.5007 28.5433 42.249 28.625L42.0615 29.5C41.9782 29.7917 41.8324 30.0317 41.624 30.22C41.4157 30.4083 41.1657 30.5017 40.874 30.5H40.374C40.0824 30.5 39.8324 30.4058 39.624 30.2175C39.4157 30.0292 39.2699 29.79 39.1865 29.5ZM40.624 26.125C41.124 26.125 41.5615 25.9375 41.9365 25.5625C42.3115 25.1875 42.499 24.75 42.499 24.25C42.499 23.75 42.3115 23.3125 41.9365 22.9375C41.5615 22.5625 41.124 22.375 40.624 22.375C40.124 22.375 39.6865 22.5625 39.3115 22.9375C38.9365 23.3125 38.749 23.75 38.749 24.25C38.749 24.75 38.9365 25.1875 39.3115 25.5625C39.6865 25.9375 40.124 26.125 40.624 26.125ZM44.874 16.625L44.624 15.375C44.249 15.25 43.9049 15.0933 43.5915 14.905C43.2782 14.7167 42.9974 14.4983 42.749 14.25L41.4365 14.6875C41.0615 14.8125 40.6865 14.8017 40.3115 14.655C39.9365 14.5083 39.6449 14.2692 39.4365 13.9375L39.0615 13.3125C38.8532 12.9792 38.7799 12.6142 38.8415 12.2175C38.9032 11.8208 39.1015 11.4775 39.4365 11.1875L40.499 10.25C40.4157 10.0417 40.374 9.875 40.374 9.75V8.75C40.374 8.625 40.4157 8.45833 40.499 8.25L39.4365 7.3125C39.1032 7.02083 38.9049 6.67667 38.8415 6.28C38.7782 5.88333 38.8515 5.51917 39.0615 5.1875L39.4365 4.5625C39.6449 4.22917 39.9365 3.98917 40.3115 3.8425C40.6865 3.69583 41.0615 3.68583 41.4365 3.8125L42.749 4.25C42.999 4 43.2807 3.78083 43.594 3.5925C43.9074 3.40417 44.2507 3.24833 44.624 3.125L44.874 1.875C44.9574 1.45833 45.1557 1.125 45.469 0.875C45.7824 0.625 46.1465 0.5 46.5615 0.5H47.1865C47.6032 0.5 47.9682 0.625 48.2815 0.875C48.5949 1.125 48.7924 1.45833 48.874 1.875L49.124 3.125C49.499 3.25 49.8432 3.40667 50.1565 3.595C50.4699 3.78333 50.7507 4.00167 50.999 4.25L52.3115 3.8125C52.6865 3.6875 53.0615 3.69833 53.4365 3.845C53.8115 3.99167 54.1032 4.23083 54.3115 4.5625L54.6865 5.1875C54.8949 5.52083 54.9682 5.88583 54.9065 6.2825C54.8449 6.67917 54.6465 7.0225 54.3115 7.3125L53.249 8.25C53.3324 8.45833 53.374 8.625 53.374 8.75V9.75C53.374 9.875 53.3324 10.0417 53.249 10.25L54.3115 11.1875C54.6449 11.4792 54.8432 11.8233 54.9065 12.22C54.9699 12.6167 54.8965 12.9808 54.6865 13.3125L54.3115 13.9375C54.1032 14.2708 53.8115 14.5108 53.4365 14.6575C53.0615 14.8042 52.6865 14.8142 52.3115 14.6875L50.999 14.25C50.749 14.5 50.4682 14.7183 50.1565 14.905C49.8449 15.0917 49.5007 15.2483 49.124 15.375L48.874 16.625C48.7907 17.0417 48.5924 17.375 48.279 17.625C47.9657 17.875 47.6015 18 47.1865 18H46.5615C46.1449 18 45.7799 17.875 45.4665 17.625C45.1532 17.375 44.9557 17.0417 44.874 16.625ZM46.874 12.375C47.749 12.375 48.489 12.0725 49.094 11.4675C49.699 10.8625 50.0007 10.1233 49.999 9.25C49.999 8.375 49.6965 7.635 49.0915 7.03C48.4865 6.425 47.7474 6.12333 46.874 6.125C45.999 6.125 45.259 6.4275 44.654 7.0325C44.049 7.6375 43.7474 8.37667 43.749 9.25C43.749 10.125 44.0515 10.865 44.6565 11.47C45.2615 12.075 46.0007 12.3767 46.874 12.375Z" fill="#297515"/>
</svg>
